<?xml version="1.0" encoding="iso-8859-1"?>
<!-- Generator: Adobe Illustrator 19.0.0, SVG Export Plug-In . SVG Version: 6.00 Build 0)  -->
<svg version="1.1" id="Layer_1" xmlns="http://www.w3.org/2000/svg" xmlns:xlink="http://www.w3.org/1999/xlink" x="0px" y="0px"
	 viewBox="0 0 330 330" style="enable-background:new 0 0 330 330;" xml:space="preserve">
<path id="XMLID_444_" d="M305.018,0h-60H24.982c-8.284,0-15,6.716-15,15v300c0,8.284,6.716,15,15,15h220.035c8.284,0,15-6.716,15-15
	v-45h45c8.284,0,15-6.716,15-15v-80V95V15C320.018,6.716,313.302,0,305.018,0z M260.018,110h30v50h-30V110z M290.018,80h-30V30h30
	V80z M230.018,300H39.982V30h190.035v65v80v80V300z M290.018,240h-30v-50h30V240z"/>
</svg>
